<svg xmlns="http://www.w3.org/2000/svg" width="32" height="32" viewBox="0 0 32 32">
  <rect width="32" height="32" rx="8" fill="#fff7e6"></rect>
  <path d="M10 23c0-5 2-12 6-12s6 7 6 12" fill="#ffffff" stroke="#3a3a3a" stroke-width="1.4" stroke-linecap="round"></path>
  <path d="M12.3 12.2l-2.2-3.6c-.6-1 0-2.2 1.2-2.2h.9c.5 0 1 .3 1.2.7l1.6 3.3" fill="#ffffff" stroke="#3a3a3a" stroke-width="1.2" stroke-linecap="round"></path>
  <path d="M19.7 12.2l2.2-3.6c.6-1 0-2.2-1.2-2.2h-.9c-.5 0-1 .3-1.2.7l-1.6 3.3" fill="#ffffff" stroke="#3a3a3a" stroke-width="1.2" stroke-linecap="round"></path>
  <circle cx="13.4" cy="15.7" r="1" fill="#3a3a3a"></circle>
  <circle cx="18.6" cy="15.7" r="1" fill="#3a3a3a"></circle>
  <path d="M15.2 18.3c.6.5 1 .5 1.6 0" fill="none" stroke="#3a3a3a" stroke-width="1.2" stroke-linecap="round"></path>
  <path d="M13 24.2v2.2M19 24.2v2.2" stroke="#3a3a3a" stroke-width="1.4" stroke-linecap="round"></path>
</svg>
